<svg width="96.000000" height="16.000000" viewBox="0 0 96 16" fill="none" xmlns="http://www.w3.org/2000/svg" xmlns:xlink="http://www.w3.org/1999/xlink">
	<desc>
			Created with Pixso.
	</desc>
	<defs>
		<clipPath id="clip148_6926">
			<rect id="star" width="16.000000" height="16.000000" fill="white" fill-opacity="0"/>
		</clipPath>
		<clipPath id="clip148_6928">
			<rect id="star" width="16.000000" height="16.000000" transform="translate(20.000000 0.000000)" fill="white" fill-opacity="0"/>
		</clipPath>
		<clipPath id="clip148_6930">
			<rect id="star" width="16.000000" height="16.000000" transform="translate(40.000000 0.000000)" fill="white" fill-opacity="0"/>
		</clipPath>
		<clipPath id="clip148_6932">
			<rect id="star" width="16.000000" height="16.000000" transform="translate(60.000000 0.000000)" fill="white" fill-opacity="0"/>
		</clipPath>
		<clipPath id="clip148_6934">
			<rect id="star" width="16.000000" height="16.000000" transform="translate(80.000000 0.000000)" fill="white" fill-opacity="0"/>
		</clipPath>
		<linearGradient x1="2.333986" y1="2.000489" x2="12.333983" y2="15.333817" id="paint_linear_148_6927_0" gradientUnits="userSpaceOnUse">
			<stop stop-color="#F84119"/>
			<stop offset="1.000000" stop-color="#F89F19" stop-opacity="0.678431"/>
		</linearGradient>
		<linearGradient x1="22.333986" y1="2.000489" x2="32.333984" y2="15.333817" id="paint_linear_148_6929_0" gradientUnits="userSpaceOnUse">
			<stop stop-color="#F84119"/>
			<stop offset="1.000000" stop-color="#F89F19" stop-opacity="0.678431"/>
		</linearGradient>
		<linearGradient x1="42.333984" y1="2.000489" x2="52.333984" y2="15.333817" id="paint_linear_148_6931_0" gradientUnits="userSpaceOnUse">
			<stop stop-color="#F84119"/>
			<stop offset="1.000000" stop-color="#F89F19" stop-opacity="0.678431"/>
		</linearGradient>
		<linearGradient x1="62.333984" y1="2.000489" x2="72.333984" y2="15.333817" id="paint_linear_148_6933_0" gradientUnits="userSpaceOnUse">
			<stop stop-color="#F84119"/>
			<stop offset="1.000000" stop-color="#F89F19" stop-opacity="0.678431"/>
		</linearGradient>
		<linearGradient x1="82.333984" y1="2.000489" x2="92.333984" y2="15.333817" id="paint_linear_148_6935_0" gradientUnits="userSpaceOnUse">
			<stop stop-color="#F84119"/>
			<stop offset="1.000000" stop-color="#F89F19" stop-opacity="0.678431"/>
		</linearGradient>
	</defs>
	<rect id="star" width="16.000000" height="16.000000" fill="#FFFFFF" fill-opacity="0"/>
	<g clip-path="url(#clip148_6926)">
		<path id="Vector" d="M12.31 15C12.2 15 12.1 14.96 12.01 14.9L8 11.99L3.98 14.9C3.89 14.96 3.79 15 3.68 15C3.58 15 3.47 14.96 3.39 14.9C3.3 14.84 3.24 14.75 3.21 14.65C3.17 14.55 3.17 14.44 3.21 14.34L4.78 9.69L0.71 6.91C0.63 6.85 0.56 6.76 0.52 6.66C0.49 6.56 0.49 6.45 0.52 6.35C0.55 6.25 0.61 6.16 0.7 6.09C0.79 6.03 0.89 6 1 6L6.01 6L7.52 1.34C7.55 1.24 7.62 1.15 7.7 1.09C7.79 1.03 7.89 1 8 1C8.1 1 8.2 1.03 8.29 1.09C8.38 1.15 8.44 1.24 8.47 1.34L9.98 6L15 6C15.1 6 15.21 6.03 15.29 6.09C15.38 6.16 15.44 6.25 15.47 6.35C15.5 6.45 15.5 6.56 15.47 6.66C15.43 6.76 15.37 6.85 15.28 6.91L11.21 9.69L12.78 14.34C12.81 14.41 12.81 14.49 12.8 14.57C12.79 14.65 12.76 14.72 12.71 14.79C12.67 14.85 12.61 14.9 12.54 14.94C12.47 14.98 12.39 15 12.31 15Z" fill="url(#paint_linear_148_6927_0)" fill-opacity="1.000000" fill-rule="nonzero"/>
	</g>
	<rect id="star" width="16.000000" height="16.000000" transform="translate(20.000000 0.000000)" fill="#FFFFFF" fill-opacity="0"/>
	<g clip-path="url(#clip148_6928)">
		<path id="Vector" d="M32.31 15C32.2 15 32.1 14.96 32.01 14.9L28 11.99L23.98 14.9C23.89 14.96 23.79 15 23.68 15C23.58 15 23.47 14.96 23.39 14.9C23.3 14.84 23.24 14.75 23.21 14.65C23.17 14.55 23.17 14.44 23.21 14.34L24.78 9.69L20.71 6.91C20.63 6.85 20.56 6.76 20.52 6.66C20.49 6.56 20.49 6.45 20.52 6.35C20.55 6.25 20.61 6.16 20.7 6.09C20.79 6.03 20.89 6 21 6L26.01 6L27.52 1.34C27.55 1.24 27.62 1.15 27.7 1.09C27.79 1.03 27.89 1 28 1C28.1 1 28.2 1.03 28.29 1.09C28.38 1.15 28.44 1.24 28.47 1.34L29.98 6L35 6C35.1 6 35.21 6.03 35.29 6.09C35.38 6.16 35.44 6.25 35.47 6.35C35.5 6.45 35.5 6.56 35.47 6.66C35.43 6.76 35.37 6.85 35.28 6.91L31.21 9.69L32.78 14.34C32.81 14.41 32.81 14.49 32.8 14.57C32.79 14.65 32.76 14.72 32.71 14.79C32.67 14.85 32.61 14.9 32.54 14.94C32.47 14.98 32.39 15 32.31 15Z" fill="url(#paint_linear_148_6929_0)" fill-opacity="1.000000" fill-rule="nonzero"/>
	</g>
	<rect id="star" width="16.000000" height="16.000000" transform="translate(40.000000 0.000000)" fill="#FFFFFF" fill-opacity="0"/>
	<g clip-path="url(#clip148_6930)">
		<path id="Vector" d="M52.31 15C52.2 15 52.1 14.96 52.01 14.9L48 11.99L43.98 14.9C43.89 14.96 43.79 15 43.68 15C43.58 15 43.47 14.96 43.39 14.9C43.3 14.84 43.24 14.75 43.21 14.65C43.17 14.55 43.17 14.44 43.21 14.34L44.78 9.69L40.71 6.91C40.63 6.85 40.56 6.76 40.52 6.66C40.49 6.56 40.49 6.45 40.52 6.35C40.55 6.25 40.61 6.16 40.7 6.09C40.79 6.03 40.89 6 41 6L46.01 6L47.52 1.34C47.55 1.24 47.62 1.15 47.7 1.09C47.79 1.03 47.89 1 48 1C48.1 1 48.2 1.03 48.29 1.09C48.38 1.15 48.44 1.24 48.47 1.34L49.98 6L55 6C55.1 6 55.21 6.03 55.29 6.09C55.38 6.16 55.44 6.25 55.47 6.35C55.5 6.45 55.5 6.56 55.47 6.66C55.43 6.76 55.37 6.85 55.28 6.91L51.21 9.69L52.78 14.34C52.81 14.41 52.81 14.49 52.8 14.57C52.79 14.65 52.76 14.72 52.71 14.79C52.67 14.85 52.61 14.9 52.54 14.94C52.47 14.98 52.39 15 52.31 15Z" fill="url(#paint_linear_148_6931_0)" fill-opacity="1.000000" fill-rule="nonzero"/>
	</g>
	<rect id="star" width="16.000000" height="16.000000" transform="translate(60.000000 0.000000)" fill="#FFFFFF" fill-opacity="0"/>
	<g clip-path="url(#clip148_6932)">
		<path id="Vector" d="M72.31 15C72.2 15 72.1 14.96 72.01 14.9L68 11.99L63.98 14.9C63.89 14.96 63.79 15 63.68 15C63.58 15 63.47 14.96 63.39 14.9C63.3 14.84 63.24 14.75 63.21 14.65C63.17 14.55 63.17 14.44 63.21 14.34L64.78 9.69L60.71 6.91C60.63 6.85 60.56 6.76 60.52 6.66C60.49 6.56 60.49 6.45 60.52 6.35C60.55 6.25 60.61 6.16 60.7 6.09C60.79 6.03 60.89 6 61 6L66.01 6L67.52 1.34C67.55 1.24 67.62 1.15 67.7 1.09C67.79 1.03 67.89 1 68 1C68.1 1 68.2 1.03 68.29 1.09C68.38 1.15 68.44 1.24 68.47 1.34L69.98 6L75 6C75.1 6 75.21 6.03 75.29 6.09C75.38 6.16 75.44 6.25 75.47 6.35C75.5 6.45 75.5 6.56 75.47 6.66C75.43 6.76 75.37 6.85 75.28 6.91L71.21 9.69L72.78 14.34C72.81 14.41 72.81 14.49 72.8 14.57C72.79 14.65 72.76 14.72 72.71 14.79C72.67 14.85 72.61 14.9 72.54 14.94C72.47 14.98 72.39 15 72.31 15Z" fill="url(#paint_linear_148_6933_0)" fill-opacity="1.000000" fill-rule="nonzero"/>
	</g>
	<rect id="star" width="16.000000" height="16.000000" transform="translate(80.000000 0.000000)" fill="#FFFFFF" fill-opacity="0"/>
	<g clip-path="url(#clip148_6934)">
		<path id="Vector" d="M92.31 15C92.2 15 92.1 14.96 92.01 14.9L88 11.99L83.98 14.9C83.89 14.96 83.79 15 83.68 15C83.58 15 83.47 14.96 83.39 14.9C83.3 14.84 83.24 14.75 83.21 14.65C83.17 14.55 83.17 14.44 83.21 14.34L84.78 9.69L80.71 6.91C80.63 6.85 80.56 6.76 80.52 6.66C80.49 6.56 80.49 6.45 80.52 6.35C80.55 6.25 80.61 6.16 80.7 6.09C80.79 6.03 80.89 6 81 6L86.01 6L87.52 1.34C87.55 1.24 87.62 1.15 87.7 1.09C87.79 1.03 87.89 1 88 1C88.1 1 88.2 1.03 88.29 1.09C88.38 1.15 88.44 1.24 88.47 1.34L89.98 6L95 6C95.1 6 95.21 6.03 95.29 6.09C95.38 6.16 95.44 6.25 95.47 6.35C95.5 6.45 95.5 6.56 95.47 6.66C95.43 6.76 95.37 6.85 95.28 6.91L91.21 9.69L92.78 14.34C92.81 14.41 92.81 14.49 92.8 14.57C92.79 14.65 92.76 14.72 92.71 14.79C92.67 14.85 92.61 14.9 92.54 14.94C92.47 14.98 92.39 15 92.31 15Z" fill="url(#paint_linear_148_6935_0)" fill-opacity="1.000000" fill-rule="nonzero"/>
	</g>
</svg>
