<svg width="60.000000" height="24.000000" viewBox="0 0 60 24" fill="none" xmlns="http://www.w3.org/2000/svg" xmlns:xlink="http://www.w3.org/1999/xlink">
	<desc>
			Created with Pixso.
	</desc>
	<defs>
		<linearGradient x1="7.328655" y1="1.714874" x2="47.331493" y2="24.568779" id="paint_linear_403_7_0" gradientUnits="userSpaceOnUse">
			<stop stop-color="#FFC226"/>
			<stop offset="1.000000" stop-color="#F84119"/>
		</linearGradient>
		<linearGradient x1="53.418167" y1="7.372178" x2="54.869137" y2="18.006439" id="paint_linear_403_11_0" gradientUnits="userSpaceOnUse">
			<stop stop-color="#FFC226"/>
			<stop offset="1.000000" stop-color="#F84119"/>
		</linearGradient>
	</defs>
	<rect id="Rectangle 1" rx="12.000000" width="60.000000" height="24.000000" fill="url(#paint_linear_403_7_0)" fill-opacity="1.000000"/>
	<path id="Vector" d="M10.71 17.99C13.18 18.09 15.4 16.97 16.73 15.21C17.28 14.49 16.98 14.01 16.06 14.17C15.61 14.25 15.15 14.28 14.66 14.26C11.38 14.13 8.7 11.48 8.69 8.34C8.68 7.49 8.86 6.69 9.19 5.97C9.55 5.16 9.11 4.78 8.28 5.12C5.62 6.21 3.8 8.8 4.02 11.77C4.26 15.12 7.2 17.84 10.71 17.99Z" stroke="#FFFFFF" stroke-opacity="1.000000" stroke-width="1.000000" stroke-linejoin="round"/>
	<path id="Ellipse 1" d="M41.64 5.64C45.16 2.12 50.86 2.11 54.37 5.62C57.88 9.13 57.87 14.83 54.35 18.35C50.83 21.87 45.13 21.88 41.62 18.37C38.11 14.86 38.12 9.16 41.64 5.64Z" fill="#FFFFFF" fill-opacity="1.000000" fill-rule="nonzero"/>
	<path id="Ellipse 2" d="M53.17 6.57C56.05 9.65 56.04 14.65 53.15 17.74" stroke="url(#paint_linear_403_11_0)" stroke-opacity="1.000000" stroke-width="1.200000" stroke-linecap="round"/>
</svg>
